<?xml version="1.0" encoding="UTF-8"?>
<svg version="1.1" xmlns="http://www.w3.org/2000/svg" width="500" height="500">
<path d="M0 0 C165 0 330 0 500 0 C500 165 500 330 500 500 C335 500 170 500 0 500 C0 335 0 170 0 0 Z " fill="#FEFDFE" transform="translate(0,0)"/>
<path d="M0 0 C16.17 0 32.34 0 49 0 C49.16043524 16.07026294 49.16043524 16.07026294 49.1953125 22.97265625 C49.21913278 27.66441162 49.24717104 32.35585182 49.30175781 37.04736328 C49.34553565 40.83401546 49.3692036 44.62032921 49.37950897 48.40721512 C49.38684359 49.84478704 49.40116499 51.28234251 49.42292023 52.71976852 C49.56651543 62.60972094 48.63609356 70.53488553 43.05859375 78.91796875 C36.05312746 86.00319367 28.10733265 87.63440262 18.5 87.75 C8.19328094 87.62607517 0.6143659 85.23355514 -7.3125 78.375 C-9 76 -9 76 -8.890625 74.1796875 C-7.64023898 71.11953223 -5.68676332 69.15766214 -3.4375 66.75 C-2.61121094 65.85796875 -1.78492188 64.9659375 -0.93359375 64.046875 C-0.29550781 63.37140625 0.34257812 62.6959375 1 62 C1.53109375 62.40992188 2.0621875 62.81984375 2.609375 63.2421875 C3.66898438 64.05042969 3.66898438 64.05042969 4.75 64.875 C5.44609375 65.40867187 6.1421875 65.94234375 6.859375 66.4921875 C11.49751997 69.75920202 15.29817642 70.7155675 21 70 C24.3327671 68.66689316 25.64321723 67.54508026 27.60473633 64.54833984 C29.48986486 59.75420895 29.47824657 55.46006565 29.51171875 50.3515625 C29.52966995 49.33903412 29.54762115 48.32650574 29.56611633 47.28329468 C29.62009958 44.06390489 29.65407707 40.84466237 29.6875 37.625 C29.7206836 35.43617748 29.75517422 33.24737436 29.79101562 31.05859375 C29.87826886 25.70570936 29.93844126 20.35348775 30 15 C20.1 15 10.2 15 0 15 C0 10.05 0 5.1 0 0 Z " fill="#FF6B01" transform="translate(146,202)"/>
<path d="M0 0 C23.43 0 46.86 0 71 0 C71 4.95 71 9.9 71 15 C62.42 15 53.84 15 45 15 C45 37.11 45 59.22 45 82 C38.73 82 32.46 82 26 82 C26 59.89 26 37.78 26 15 C17.42 15 8.84 15 0 15 C0 10.05 0 5.1 0 0 Z " fill="#131527" transform="translate(208,201)"/>
<path d="M0 0 C3.38031589 1.18767855 3.93216817 1.89825225 6 5 C6 6.98 6 8.96 6 11 C1.38 11 -3.24 11 -8 11 C-7.01 12.485 -7.01 12.485 -6 14 C-3.56306689 14.36416047 -3.56306689 14.36416047 -0.875 14.1875 C0.49011719 14.14689453 0.49011719 14.14689453 1.8828125 14.10546875 C2.58148438 14.07066406 3.28015625 14.03585937 4 14 C4 15.32 4 16.64 4 18 C0.54260443 19.72869779 -3.21975568 19.48966895 -7 19 C-9.87029869 17.20606332 -11.49131638 16.01736724 -13 13 C-13.39447548 8.81855989 -13.45035186 6.69053952 -11.125 3.125 C-7.52675492 -0.47324508 -5.00667995 -0.2589662 0 0 Z " fill="#272939" transform="translate(309,278)"/>
<path d="M0 0 C1.65 0 3.3 0 5 0 C5.33 2.64 5.66 5.28 6 8 C6.33 7.67 6.66 7.34 7 7 C10.89490179 6.62549021 13.27177463 6.58821213 16.71484375 8.53515625 C19.31893397 11.34401254 19.5310796 12.90858286 19.43945312 16.68359375 C19.39755859 17.36550781 19.35566406 18.04742187 19.3125 18.75 C19.28994141 19.44738281 19.26738281 20.14476562 19.24414062 20.86328125 C19.18547048 22.57644935 19.09579256 24.28850623 19 26 C17.68 26 16.36 26 15 26 C14.93941406 25.07316406 14.87882812 24.14632813 14.81640625 23.19140625 C14.73261719 21.99386719 14.64882813 20.79632813 14.5625 19.5625 C14.48128906 18.36753906 14.40007812 17.17257812 14.31640625 15.94140625 C14.32343886 13.11429756 14.32343886 13.11429756 13 12 C10 11.83333333 10 11.83333333 7 12 C5.12175109 13.87824891 5.60897603 17.03935276 5.4375 19.5625 C5.31181641 21.35880859 5.31181641 21.35880859 5.18359375 23.19140625 C5.12300781 24.11824219 5.06242187 25.04507812 5 26 C3.35 26 1.7 26 0 26 C0 17.42 0 8.84 0 0 Z " fill="#242637" transform="translate(340,271)"/>
<path d="M0 0 C3.62716299 0.02604785 5.54755703 0.61005703 8.1875 3.25 C7.8575 4.24 7.5275 5.23 7.1875 6.25 C6.47722656 6.16621094 5.76695312 6.08242188 5.03515625 5.99609375 C3.65650391 5.84333984 3.65650391 5.84333984 2.25 5.6875 C1.33347656 5.58308594 0.41695313 5.47867187 -0.52734375 5.37109375 C-1.65849609 5.31115234 -1.65849609 5.31115234 -2.8125 5.25 C-4.21682936 6.42718985 -4.21682936 6.42718985 -3.9375 9.75 C-4.21682936 13.07281015 -4.21682936 13.07281015 -2.8125 14.25 C0.55379251 14.39636054 2.97169562 14.32193479 6.1875 13.25 C6.8475 13.58 7.5075 13.91 8.1875 14.25 C6.4375 18.125 6.4375 18.125 4.1875 19.25 C-2.90208838 19.8311138 -2.90208838 19.8311138 -6.75 17.375 C-9.39005824 14.65493999 -9.75613945 13.74785154 -10.1875 9.9375 C-9.72036625 5.34401813 -8.29209782 4.13552015 -4.8125 1.25 C-3.8125 0.25 -3.8125 0.25 0 0 Z " fill="#272939" transform="translate(327.8125,277.75)"/>
<path d="M0 0 C6.93 0 13.86 0 21 0 C21 1.32 21 2.64 21 4 C18.03 4 15.06 4 12 4 C12 10.93 12 17.86 12 25 C10.68 25 9.36 25 8 25 C8 18.07 8 11.14 8 4 C5.36 4 2.72 4 0 4 C0 2.68 0 1.36 0 0 Z " fill="#1B1D2F" transform="translate(274,272)"/>
<path d="M0 0 C1.98 0 3.96 0 6 0 C6.66 1.32 7.32 2.64 8 4 C4.7 4 1.4 4 -2 4 C-1.34 2.68 -0.68 1.36 0 0 Z " fill="#FBFBFB" transform="translate(303,282)"/>
<path d="M0 0 C1.58246707 -0.08153933 3.16616273 -0.13943557 4.75 -0.1875 C6.07257813 -0.23970703 6.07257813 -0.23970703 7.421875 -0.29296875 C10 0 10 0 14 3 C9.38 3 4.76 3 0 3 C0 2.01 0 1.02 0 0 Z " fill="#191B2C" transform="translate(301,286)"/>
</svg>
